<?xml version="1.0" encoding="utf-8"?>
<!-- Generator: Adobe Illustrator 19.2.1, SVG Export Plug-In . SVG Version: 6.00 Build 0)  -->
<svg version="1.1" id="Layer_1" xmlns="http://www.w3.org/2000/svg" xmlns:xlink="http://www.w3.org/1999/xlink" x="0px" y="0px"
	 width="300px" height="600px" viewBox="0 0 300 600" enable-background="new 0 0 300 600" xml:space="preserve">
<g>
	<path fill="#FFFFFF" d="M46.3,155.2c0-4.4,2.6-7.9,7.1-7.9c2.6,0,4.4,1,5.7,2.8l-1.2,1.1c-1-1.5-2.4-2.4-4.4-2.4
		c-3.3,0-5.4,2.7-5.4,6.3c0,3.7,2,6.4,5.5,6.4c2.9,0,4.7-1.9,5.1-4.8h-5.2v-1.5h6.9v0.5c0,4.1-2.5,7.3-6.7,7.3
		C48.9,163,46.3,159.6,46.3,155.2z"/>
	<path fill="#FFFFFF" d="M62.1,157.2c0-3.3,2.1-5.8,5.4-5.8c2.5,0,4.3,1.6,5,3.7l-8.3,4.4c0.6,1.4,1.9,2.2,3.7,2.2
		c1.6,0,2.6-0.6,3.4-1.7l1,1c-1,1.3-2.6,2-4.6,2C64.2,163,62.1,160.5,62.1,157.2z M63.8,158.2l6.8-3.6c-0.6-1.2-1.7-1.9-3.1-1.9
		c-2.2,0-3.8,1.8-3.8,4.5C63.7,157.5,63.8,157.9,63.8,158.2z"/>
	<path fill="#FFFFFF" d="M79.4,163c-3.5,0-5.5-2.6-5.5-5.8c0-3.3,2-5.8,5.5-5.8c3.5,0,5.5,2.6,5.5,5.8C84.9,160.5,82.9,163,79.4,163
		z M79.4,152.8c-2.4,0-3.9,1.9-3.9,4.4c0,2.5,1.4,4.4,3.9,4.4c2.5,0,3.9-1.9,3.9-4.4C83.3,154.7,81.8,152.8,79.4,152.8z"/>
	<path fill="#FFFFFF" d="M87.7,162.8v-11h1.6v2.1h0c0.5-1.2,1.8-2.4,3.5-2.4c0.3,0,0.6,0,0.9,0.1l-0.1,1.6c-0.4-0.1-0.7-0.1-1-0.1
		c-2,0-3.3,1.9-3.3,3.6v6.1H87.7z"/>
	<path fill="#FFFFFF" d="M97.8,167.1l0.1-1.4c0.5,0.1,1,0.1,1.6,0.1c2.1,0,3.9-1.1,3.9-3.3v-2.3h0c-0.5,1.1-1.8,2.2-3.8,2.2
		c-3.1,0-4.9-2.4-4.9-5.6c0-3.1,1.8-5.6,4.9-5.6c2,0,3.3,1.2,3.8,2.3h0v-2h1.6v10.9c0,3-2.4,4.6-5.4,4.6
		C99,167.2,98.4,167.2,97.8,167.1z M103.3,157.7v-1.3c0-1.8-1.3-3.5-3.4-3.5c-2.2,0-3.6,1.8-3.6,4.2s1.4,4.2,3.6,4.2
		C102,161.2,103.3,159.4,103.3,157.7z"/>
	<path fill="#FFFFFF" d="M107.7,157.2c0-3.3,2.1-5.8,5.4-5.8c2.5,0,4.3,1.6,5,3.7l-8.3,4.4c0.6,1.4,1.9,2.2,3.7,2.2
		c1.6,0,2.6-0.6,3.4-1.7l1,1c-1,1.3-2.6,2-4.6,2C109.8,163,107.7,160.5,107.7,157.2z M109.4,158.2l6.8-3.6c-0.6-1.2-1.7-1.9-3.1-1.9
		c-2.2,0-3.8,1.8-3.8,4.5C109.3,157.5,109.3,157.9,109.4,158.2z"/>
	<path fill="#FFFFFF" d="M143.4,162.8v-6.4c0-2-1.1-3.5-3.1-3.5c-2,0-3.3,1.8-3.3,3.7v6.3h-1.6v-6.4c0-2-1.1-3.5-3.2-3.5
		c-2,0-3.3,1.8-3.3,3.7v6.2h-1.6v-11h1.6v2.1h0c0.4-1,1.7-2.4,3.7-2.4c2.1,0,3.4,1.1,3.9,2.7h0.1c0.7-1.6,2.2-2.7,4.1-2.7
		c2.8,0,4.4,1.9,4.4,4.6v6.7H143.4z"/>
	<path fill="#FFFFFF" d="M148.7,149.1v-1.5h1.7v1.5H148.7z M148.7,162.8v-11h1.6v11H148.7z"/>
	<path fill="#FFFFFF" d="M156.4,167.1l0.1-1.4c0.5,0.1,1,0.1,1.6,0.1c2.1,0,3.9-1.1,3.9-3.3v-2.3h0c-0.5,1.1-1.8,2.2-3.8,2.2
		c-3.1,0-4.9-2.4-4.9-5.6c0-3.1,1.8-5.6,4.9-5.6c2,0,3.3,1.2,3.8,2.3h0v-2h1.6v10.9c0,3-2.4,4.6-5.4,4.6
		C157.6,167.2,156.9,167.2,156.4,167.1z M161.9,157.7v-1.3c0-1.8-1.3-3.5-3.4-3.5c-2.2,0-3.6,1.8-3.6,4.2s1.4,4.2,3.6,4.2
		C160.6,161.2,161.9,159.4,161.9,157.7z"/>
	<path fill="#FFFFFF" d="M175.4,162.8v-6.4c0-2-1.1-3.5-3.1-3.5c-2,0-3.3,1.8-3.3,3.7v6.2h-1.6v-15.1h1.6v6.1h0
		c0.4-1,1.7-2.4,3.7-2.4c2.8,0,4.3,1.9,4.3,4.6v6.7H175.4z"/>
	<path fill="#FFFFFF" d="M180.9,162.8v-9.7h-1.7v-1.4h1.7v-4.1h1.6v4.1h2.8v1.4h-2.8v9.7H180.9z"/>
	<path fill="#FFFFFF" d="M199.5,163c-2.1,0-3.5-1.2-4-2.4h0v2.1h-1.6v-15.1h1.6v6.1h0c0.5-1.1,1.9-2.4,4-2.4c3.2,0,5.1,2.5,5.1,5.8
		C204.6,160.5,202.7,163,199.5,163z M199.2,152.8c-2.3,0-3.6,1.8-3.6,3.7v1.4c0,1.8,1.3,3.7,3.6,3.7c2.4,0,3.8-1.9,3.8-4.4
		C203,154.8,201.5,152.8,199.2,152.8z"/>
	<path fill="#FFFFFF" d="M206.8,157.2c0-3.3,2.1-5.8,5.4-5.8c2.5,0,4.3,1.6,5,3.7l-8.3,4.4c0.6,1.4,1.9,2.2,3.7,2.2
		c1.6,0,2.6-0.6,3.4-1.7l1,1c-1,1.3-2.6,2-4.6,2C208.9,163,206.8,160.5,206.8,157.2z M208.5,158.2l6.8-3.6c-0.6-1.2-1.7-1.9-3.1-1.9
		c-2.2,0-3.8,1.8-3.8,4.5C208.4,157.5,208.4,157.9,208.5,158.2z"/>
	<path fill="#FFFFFF" d="M47.3,187.8v-9.7h-1.7v-1.4h1.7v-0.6c0-2.4,1.3-3.8,3.8-3.8c0.4,0,0.8,0,1.2,0.1l-0.1,1.3
		c-0.3-0.1-0.6-0.1-1-0.1c-1.6,0-2.3,0.9-2.3,2.4v0.6h2.8v1.4h-2.8v9.7H47.3z M53.2,187.8v-15.1h1.6v15.1H53.2z"/>
	<path fill="#FFFFFF" d="M58.7,174.1v-1.5h1.7v1.5H58.7z M58.7,187.8v-11h1.6v11H58.7z"/>
	<path fill="#FFFFFF" d="M64.2,187.8v-11h1.6v2.1h0c0.5-1.2,1.8-2.4,3.5-2.4c0.3,0,0.6,0,0.9,0.1l-0.1,1.6c-0.4-0.1-0.7-0.1-1-0.1
		c-2,0-3.3,1.9-3.3,3.6v6.1H64.2z"/>
	<path fill="#FFFFFF" d="M73.5,187.8v-9.7h-1.7v-1.4h1.7v-4.1h1.6v4.1h2.8v1.4h-2.8v9.7H73.5z"/>
	<path fill="#FFFFFF" d="M80.2,174.1v-1.5h1.7v1.5H80.2z M80.2,187.8v-11h1.6v11H80.2z"/>
	<path fill="#FFFFFF" d="M94.1,187.8v-6.4c0-2-1.1-3.5-3.3-3.5c-2.1,0-3.5,1.8-3.5,3.7v6.2h-1.6v-11h1.6v2.1h0
		c0.5-1,1.8-2.4,3.9-2.4c2.9,0,4.5,1.9,4.5,4.6v6.7H94.1z"/>
	<path fill="#FFFFFF" d="M101.6,192.1l0.1-1.4c0.5,0.1,1,0.1,1.6,0.1c2.1,0,3.9-1.1,3.9-3.3v-2.3h0c-0.5,1.1-1.8,2.2-3.8,2.2
		c-3.1,0-4.9-2.4-4.9-5.6c0-3.1,1.8-5.6,4.9-5.6c2,0,3.3,1.2,3.8,2.3h0v-2h1.6v10.9c0,3-2.4,4.6-5.4,4.6
		C102.8,192.2,102.1,192.2,101.6,192.1z M107.1,182.7v-1.3c0-1.8-1.3-3.5-3.4-3.5c-2.2,0-3.6,1.8-3.6,4.2s1.4,4.2,3.6,4.2
		C105.8,186.2,107.1,184.4,107.1,182.7z"/>
	<path fill="#FFFFFF" d="M130.4,187.8h-1.6l-3.2-7.4h0l-3.2,7.4h-1.6l-3.3-11h1.7l2.6,8.8h0l3.7-8.4h0.1l3.7,8.4h0l2.6-8.8h1.7
		L130.4,187.8z"/>
	<path fill="#FFFFFF" d="M136.4,174.1v-1.5h1.7v1.5H136.4z M136.4,187.8v-11h1.6v11H136.4z"/>
	<path fill="#FFFFFF" d="M142,187.8v-9.7h-1.7v-1.4h1.7v-4.1h1.6v4.1h2.8v1.4h-2.8v9.7H142z"/>
	<path fill="#FFFFFF" d="M156.9,187.8v-6.4c0-2-1.1-3.5-3.1-3.5c-2,0-3.3,1.8-3.3,3.7v6.2h-1.6v-15.1h1.6v6.1h0
		c0.4-1,1.7-2.4,3.7-2.4c2.8,0,4.3,1.9,4.3,4.6v6.7H156.9z"/>
	<path fill="#FFFFFF" d="M176.5,187.8v-2.1h0c-0.5,1.2-1.9,2.4-4,2.4c-3.2,0-5.1-2.5-5.1-5.8c0-3.3,1.9-5.8,5.1-5.8
		c2.1,0,3.5,1.2,3.9,2.4h0v-6.1h1.6v15.1H176.5z M176.5,182.9v-1.4c0-1.9-1.3-3.7-3.6-3.7c-2.4,0-3.8,1.9-3.8,4.4
		c0,2.5,1.4,4.4,3.8,4.4C175.2,186.6,176.5,184.8,176.5,182.9z"/>
	<path fill="#FFFFFF" d="M189.3,187.8v-1.3h0c-0.4,0.7-1.5,1.6-3.7,1.6c-2.6,0-4.3-1.5-4.3-3.7c0-2.2,1.6-3.7,4.3-3.7
		c2.1,0,3.2,0.8,3.7,1.5h0v-1.4c0-1.7-1.1-3-3.9-3c-0.7,0-1.6,0.1-2.3,0.2l-0.1-1.4c0.8-0.1,1.7-0.2,2.5-0.2c3.6,0,5.4,1.6,5.4,4.4
		v7H189.3z M189.3,184.4v-0.3c0-1.3-1.2-2.3-3.3-2.3c-2,0-3.1,0.9-3.1,2.4c0,1.5,1.2,2.5,3.2,2.5
		C188.1,186.8,189.3,185.8,189.3,184.4z"/>
	<path fill="#FFFFFF" d="M203,187.8v-6.4c0-2-1.1-3.5-3.3-3.5c-2.1,0-3.5,1.8-3.5,3.7v6.2h-1.6v-11h1.6v2.1h0c0.5-1,1.8-2.4,3.9-2.4
		c2.9,0,4.5,1.9,4.5,4.6v6.7H203z"/>
	<path fill="#FFFFFF" d="M210.4,192.1l0.1-1.4c0.5,0.1,1,0.1,1.6,0.1c2.1,0,3.9-1.1,3.9-3.3v-2.3h0c-0.5,1.1-1.8,2.2-3.8,2.2
		c-3.1,0-4.9-2.4-4.9-5.6c0-3.1,1.8-5.6,4.9-5.6c2,0,3.3,1.2,3.8,2.3h0v-2h1.6v10.9c0,3-2.4,4.6-5.4,4.6
		C211.6,192.2,211,192.2,210.4,192.1z M215.9,182.7v-1.3c0-1.8-1.3-3.5-3.4-3.5c-2.2,0-3.6,1.8-3.6,4.2s1.4,4.2,3.6,4.2
		C214.7,186.2,215.9,184.4,215.9,182.7z"/>
	<path fill="#FFFFFF" d="M220.4,182.2c0-3.3,2.1-5.8,5.4-5.8c2.5,0,4.3,1.6,5,3.7l-8.3,4.4c0.6,1.4,1.9,2.2,3.7,2.2
		c1.6,0,2.6-0.6,3.4-1.7l1,1c-1,1.3-2.6,2-4.6,2C222.4,188,220.4,185.5,220.4,182.2z M222.1,183.2l6.8-3.6c-0.6-1.2-1.7-1.9-3.1-1.9
		c-2.2,0-3.8,1.8-3.8,4.5C222,182.5,222,182.9,222.1,183.2z"/>
	<path fill="#FFFFFF" d="M233.6,187.8v-11h1.6v2.1h0c0.5-1.2,1.8-2.4,3.5-2.4c0.3,0,0.6,0,0.9,0.1l-0.1,1.6c-0.4-0.1-0.7-0.1-1-0.1
		c-2,0-3.3,1.9-3.3,3.6v6.1H233.6z"/>
	<path fill="#FFFFFF" d="M240.3,187.8v-2h1.9v2H240.3z"/>
	<path fill="#FFFFFF" d="M246.6,187.8v-2h1.9v2H246.6z"/>
	<path fill="#FFFFFF" d="M252.9,187.8v-2h1.9v2H252.9z"/>
</g>
<g>
	<path fill="#FFFFFF" d="M36.7,287.7h-6.5v-15.1h6.4c2.6,0,4.3,1.3,4.3,3.6c0,1.8-1,2.9-2.4,3.3v0c1.5,0.3,3.2,1.5,3.2,3.9
		S39.9,287.7,36.7,287.7z M36.5,274h-4.6v4.9h4.7c1.7,0,2.6-1,2.6-2.5C39.2,274.9,38,274,36.5,274z M36.7,280.3h-4.9v5.9h4.7
		c2.1,0,3.6-1.2,3.6-3C40.1,281.2,38.4,280.3,36.7,280.3z"/>
	<path fill="#FFFFFF" d="M45,283.1v-6.5h1.6v6.3c0,2,1.1,3.6,3.3,3.6s3.2-1.6,3.2-3.6v-6.3h1.6v6.5c0,2.8-1.7,4.8-4.9,4.8
		C46.8,288,45,285.9,45,283.1z"/>
	<path fill="#FFFFFF" d="M58.5,287.7V278h-1.7v-1.4h1.7v-4.1h1.6v4.1H63v1.4h-2.8v9.7H58.5z"/>
	<path fill="#FFFFFF" d="M79.7,287.7v-6.4c0-2-1.1-3.5-3.1-3.5c-2,0-3.3,1.8-3.3,3.7v6.2h-1.6v-15.1h1.6v6.1h0
		c0.4-1,1.7-2.4,3.7-2.4c2.8,0,4.3,1.9,4.3,4.6v6.7H79.7z"/>
	<path fill="#FFFFFF" d="M83.9,282.2c0-3.3,2.1-5.8,5.4-5.8c2.5,0,4.3,1.6,5,3.7l-8.3,4.4c0.6,1.4,1.9,2.2,3.7,2.2
		c1.6,0,2.6-0.6,3.4-1.7l1,1c-1,1.3-2.6,2-4.6,2C86,288,83.9,285.4,83.9,282.2z M85.6,283.1l6.8-3.6c-0.6-1.2-1.7-1.9-3.1-1.9
		c-2.2,0-3.8,1.8-3.8,4.5C85.6,282.4,85.6,282.8,85.6,283.1z"/>
	<path fill="#FFFFFF" d="M111.9,287.7v-6.4c0-2-1.1-3.5-3.3-3.5c-2.1,0-3.5,1.8-3.5,3.7v6.2h-1.6v-11h1.6v2.1h0
		c0.5-1,1.8-2.4,3.9-2.4c2.9,0,4.5,1.9,4.5,4.6v6.7H111.9z"/>
	<path fill="#FFFFFF" d="M116.1,282.2c0-3.3,2.1-5.8,5.4-5.8c2.5,0,4.3,1.6,5,3.7l-8.3,4.4c0.6,1.4,1.9,2.2,3.7,2.2
		c1.6,0,2.6-0.6,3.4-1.7l1,1c-1,1.3-2.6,2-4.6,2C118.2,288,116.1,285.4,116.1,282.2z M117.8,283.1l6.8-3.6c-0.6-1.2-1.7-1.9-3.1-1.9
		c-2.2,0-3.8,1.8-3.8,4.5C117.7,282.4,117.8,282.8,117.8,283.1z"/>
	<path fill="#FFFFFF" d="M133.4,287.7h-1.7l-4.6-11h1.7l3.7,9.2h0l3.7-9.2h1.7L133.4,287.7z"/>
	<path fill="#FFFFFF" d="M138.6,282.2c0-3.3,2.1-5.8,5.4-5.8c2.5,0,4.3,1.6,5,3.7l-8.3,4.4c0.6,1.4,1.9,2.2,3.7,2.2
		c1.6,0,2.6-0.6,3.4-1.7l1,1c-1,1.3-2.6,2-4.6,2C140.7,288,138.6,285.4,138.6,282.2z M140.3,283.1l6.8-3.6c-0.6-1.2-1.7-1.9-3.1-1.9
		c-2.2,0-3.8,1.8-3.8,4.5C140.3,282.4,140.3,282.8,140.3,283.1z"/>
	<path fill="#FFFFFF" d="M151.9,287.7v-11h1.6v2.1h0c0.5-1.2,1.8-2.4,3.5-2.4c0.3,0,0.6,0,0.9,0.1l-0.1,1.6c-0.4-0.1-0.7-0.1-1-0.1
		c-2,0-3.3,1.9-3.3,3.6v6.1H151.9z"/>
	<path fill="#FFFFFF" d="M166.5,287.7v-15.1h1.6v15.1H166.5z"/>
	<path fill="#FFFFFF" d="M170.9,282.2c0-3.3,2.1-5.8,5.4-5.8c2.5,0,4.3,1.6,5,3.7l-8.3,4.4c0.6,1.4,1.9,2.2,3.7,2.2
		c1.6,0,2.6-0.6,3.4-1.7l1,1c-1,1.3-2.6,2-4.6,2C173,288,170.9,285.4,170.9,282.2z M172.6,283.1l6.8-3.6c-0.6-1.2-1.7-1.9-3.1-1.9
		c-2.2,0-3.8,1.8-3.8,4.5C172.6,282.4,172.6,282.8,172.6,283.1z"/>
	<path fill="#FFFFFF" d="M184.3,287.7V278h-1.7v-1.4h1.7v-4.1h1.6v4.1h2.8v1.4h-2.8v9.7H184.3z"/>
	<path fill="#FFFFFF" d="M194,288c-1.9,0-3.4-0.6-4.5-1.7l0.9-1.1c0.9,1,2.1,1.5,3.7,1.5c1.7,0,2.8-0.7,2.8-1.8c0-3-7.1-1.1-7.1-5.4
		c0-1.9,1.7-3.1,4.1-3.1c2,0,3.3,0.6,4.3,1.7l-0.9,1.1c-0.8-0.9-1.8-1.5-3.3-1.5c-1.6,0-2.6,0.6-2.6,1.7c0,2.8,7.1,0.9,7.1,5.4
		C198.5,286.7,196.7,288,194,288z"/>
	<path fill="#FFFFFF" d="M210,292.1l0.1-1.4c0.5,0.1,1,0.1,1.6,0.1c2.1,0,3.9-1.1,3.9-3.3v-2.3h0c-0.5,1.1-1.8,2.2-3.8,2.2
		c-3.1,0-4.9-2.4-4.9-5.6c0-3.1,1.8-5.6,4.9-5.6c2,0,3.3,1.2,3.8,2.3h0v-2h1.6v10.9c0,3-2.4,4.6-5.4,4.6
		C211.2,292.2,210.6,292.1,210,292.1z M215.5,282.6v-1.3c0-1.8-1.3-3.5-3.4-3.5c-2.2,0-3.6,1.8-3.6,4.2s1.4,4.2,3.6,4.2
		C214.3,286.1,215.5,284.3,215.5,282.6z"/>
	<path fill="#FFFFFF" d="M225.5,288c-3.5,0-5.5-2.6-5.5-5.8c0-3.3,2-5.8,5.5-5.8c3.5,0,5.5,2.6,5.5,5.8C231,285.4,229,288,225.5,288
		z M225.5,277.8c-2.4,0-3.9,1.9-3.9,4.4c0,2.5,1.4,4.4,3.9,4.4c2.5,0,3.9-1.9,3.9-4.4C229.4,279.7,227.9,277.8,225.5,277.8z"/>
	<path fill="#FFFFFF" d="M34.4,313c-3.5,0-5.5-2.6-5.5-5.8c0-3.3,2-5.8,5.5-5.8c3.5,0,5.5,2.6,5.5,5.8C39.9,310.4,37.9,313,34.4,313
		z M34.4,302.8c-2.4,0-3.9,1.9-3.9,4.4c0,2.5,1.4,4.4,3.9,4.4c2.5,0,3.9-1.9,3.9-4.4C38.3,304.7,36.8,302.8,34.4,302.8z"/>
	<path fill="#FFFFFF" d="M42.9,312.7V303h-1.7v-1.4h1.7V301c0-2.4,1.3-3.8,3.9-3.8c0.4,0,0.8,0,1.2,0.1l-0.1,1.3
		c-0.3-0.1-0.6-0.1-1-0.1c-1.6,0-2.4,0.9-2.4,2.4v0.6h2.8v1.4h-2.8v9.7H42.9z"/>
	<path fill="#FFFFFF" d="M64.1,312.7v-6.4c0-2-1.1-3.5-3.1-3.5c-2,0-3.3,1.8-3.3,3.7v6.2H56v-15.1h1.6v6.1h0c0.4-1,1.7-2.4,3.7-2.4
		c2.8,0,4.3,1.9,4.3,4.6v6.7H64.1z"/>
	<path fill="#FFFFFF" d="M69.3,299v-1.5H71v1.5H69.3z M69.4,312.7v-11H71v11H69.4z"/>
	<path fill="#FFFFFF" d="M78.6,313c-1.9,0-3.4-0.6-4.5-1.7l0.9-1.1c0.9,1,2.1,1.5,3.7,1.5c1.7,0,2.8-0.7,2.8-1.8
		c0-3-7.1-1.1-7.1-5.4c0-1.9,1.7-3.1,4.1-3.1c2,0,3.3,0.6,4.3,1.7l-0.9,1.1c-0.8-0.9-1.8-1.5-3.3-1.5c-1.6,0-2.6,0.6-2.6,1.7
		c0,2.8,7.1,0.9,7.1,5.4C83.1,311.7,81.3,313,78.6,313z"/>
	<path fill="#FFFFFF" d="M103.2,312.7l-8.1-10.6h0v10.6h-2.5v-15.1h2.5l8.1,10.6h0v-10.6h2.5v15.1H103.2z"/>
	<path fill="#FFFFFF" d="M108.5,307.1c0-3.3,2.2-5.9,5.7-5.9c2.7,0,4.7,1.7,5.3,4.1l-7.8,4.1c0.6,0.9,1.6,1.5,2.9,1.5
		c1.4,0,2.4-0.5,3-1.4l1.6,1.5c-1.1,1.3-2.8,2-4.8,2C110.7,313,108.5,310.5,108.5,307.1z M111,307.4l5.5-2.9
		c-0.5-0.8-1.3-1.4-2.4-1.4c-1.9,0-3.2,1.4-3.2,3.8C111,307.2,111,307.3,111,307.4z"/>
	<path fill="#FFFFFF" d="M125.2,313c-2,0-3.5-0.6-4.7-1.7l1.4-1.7c0.9,0.9,2,1.4,3.5,1.4c1.4,0,2.2-0.5,2.2-1.3
		c0-2.2-6.8-0.7-6.8-5.1c0-2.1,1.9-3.3,4.5-3.3c2,0,3.4,0.6,4.5,1.6l-1.4,1.7c-0.7-0.8-1.7-1.3-3-1.3c-1.3,0-2.1,0.4-2.1,1.2
		c0,2.1,6.8,0.5,6.8,5C130,311.7,128.1,313,125.2,313z"/>
	<path fill="#FFFFFF" d="M139,313c-1.8,0-3.1-0.9-3.7-1.9h0v5.8h-2.5v-15.3h2.5v1.6h0c0.6-1,1.9-1.9,3.7-1.9c3.2,0,5.1,2.5,5.1,5.9
		C144.1,310.5,142.1,313,139,313z M138.4,303.5c-2,0-3.1,1.5-3.1,3.1v1c0,1.6,1.1,3.1,3.1,3.1c2,0,3.2-1.6,3.2-3.6
		C141.5,305.1,140.3,303.5,138.4,303.5z"/>
	<path fill="#FFFFFF" d="M146.7,312.7v-11.1h2.5v1.7h0c0.6-1.1,1.8-2,3.4-2c0.3,0,0.6,0,0.9,0.1l-0.1,2.6c-0.4-0.1-0.8-0.1-1.1-0.1
		c-1.9,0-3,1.5-3,3v5.9H146.7z"/>
	<path fill="#FFFFFF" d="M154.1,307.1c0-3.3,2.2-5.9,5.7-5.9c2.7,0,4.7,1.7,5.3,4.1l-7.8,4.1c0.6,0.9,1.6,1.5,2.9,1.5
		c1.4,0,2.4-0.5,3-1.4l1.6,1.5c-1.1,1.3-2.8,2-4.9,2C156.3,313,154.1,310.5,154.1,307.1z M156.7,307.4l5.5-2.9
		c-0.5-0.8-1.3-1.4-2.4-1.4c-1.9,0-3.2,1.4-3.2,3.8C156.6,307.2,156.6,307.3,156.7,307.4z"/>
	<path fill="#FFFFFF" d="M170.8,313c-2,0-3.5-0.6-4.7-1.7l1.4-1.7c0.9,0.9,2,1.4,3.5,1.4c1.4,0,2.2-0.5,2.2-1.3
		c0-2.2-6.8-0.7-6.8-5.1c0-2.1,1.9-3.3,4.5-3.3c2,0,3.4,0.6,4.5,1.6l-1.4,1.7c-0.7-0.8-1.7-1.3-3-1.3c-1.3,0-2.1,0.4-2.1,1.2
		c0,2.1,6.8,0.5,6.8,5C175.7,311.7,173.7,313,170.8,313z"/>
	<path fill="#FFFFFF" d="M182.1,313c-2,0-3.5-0.6-4.7-1.7l1.4-1.7c0.9,0.9,2,1.4,3.5,1.4c1.4,0,2.2-0.5,2.2-1.3
		c0-2.2-6.8-0.7-6.8-5.1c0-2.1,1.9-3.3,4.5-3.3c2,0,3.4,0.6,4.5,1.6l-1.4,1.7c-0.7-0.8-1.7-1.3-3-1.3c-1.3,0-2.1,0.4-2.1,1.2
		c0,2.1,6.8,0.5,6.8,5C186.9,311.7,184.9,313,182.1,313z"/>
	<path fill="#FFFFFF" d="M194.5,313c-3.7,0-5.8-2.6-5.8-5.9c0-3.3,2.2-5.9,5.8-5.9c3.6,0,5.8,2.6,5.8,5.9
		C200.2,310.4,198.1,313,194.5,313z M194.5,303.5c-2.1,0-3.2,1.6-3.2,3.7c0,2.1,1.2,3.6,3.2,3.6c2,0,3.2-1.6,3.2-3.6
		C197.7,305.1,196.5,303.5,194.5,303.5z"/>
	<path fill="#FFFFFF" d="M213.6,313c-3.3,0-5.4-2.5-5.4-5.8c0-3.3,2.1-5.8,5.4-5.8c1.8,0,3.2,0.7,4.2,2l-1.1,1c-0.7-1-1.7-1.7-3-1.7
		c-2.3,0-3.8,1.8-3.8,4.5c0,2.6,1.5,4.5,3.9,4.5c1.4,0,2.5-0.7,3.2-1.7l1,1C217,312.2,215.5,313,213.6,313z"/>
	<path fill="#FFFFFF" d="M224.9,313c-3.5,0-5.5-2.6-5.5-5.8c0-3.3,2-5.8,5.5-5.8c3.5,0,5.5,2.6,5.5,5.8
		C230.4,310.4,228.4,313,224.9,313z M224.9,302.8c-2.4,0-3.9,1.9-3.9,4.4c0,2.5,1.4,4.4,3.9,4.4c2.5,0,3.9-1.9,3.9-4.4
		C228.8,304.7,227.3,302.8,224.9,302.8z"/>
	<path fill="#FFFFFF" d="M233.5,312.7V303h-1.8v-1.4h1.8v-0.5c0-2.4,1.3-3.9,3.9-3.9c0.4,0,0.8,0,1.2,0.1l-0.1,1.3
		c-0.3-0.1-0.6-0.1-1-0.1c-1.7,0-2.5,0.9-2.5,2.5v0.5h4.5v-0.5c0-2.4,1.3-3.9,4-3.9c0.4,0,0.8,0,1.2,0.1l-0.1,1.3
		c-0.3-0.1-0.6-0.1-1-0.1c-1.7,0-2.5,0.9-2.5,2.5v0.5h2.9v1.4h-2.9v9.7h-1.6V303h-4.5v9.7H233.5z"/>
	<path fill="#FFFFFF" d="M244.8,307.2c0-3.3,2.1-5.8,5.4-5.8c2.5,0,4.3,1.6,5,3.7l-8.3,4.4c0.6,1.4,1.9,2.2,3.7,2.2
		c1.6,0,2.6-0.6,3.4-1.7l1,1c-1,1.3-2.6,2-4.6,2C246.9,313,244.8,310.4,244.8,307.2z M246.5,308.1l6.8-3.6c-0.6-1.2-1.7-1.9-3.1-1.9
		c-2.2,0-3.8,1.8-3.8,4.5C246.5,307.4,246.5,307.8,246.5,308.1z"/>
	<path fill="#FFFFFF" d="M256.6,307.2c0-3.3,2.1-5.8,5.4-5.8c2.5,0,4.3,1.6,5,3.7l-8.3,4.4c0.6,1.4,1.9,2.2,3.7,2.2
		c1.6,0,2.6-0.6,3.4-1.7l1,1c-1,1.3-2.6,2-4.6,2C258.7,313,256.6,310.4,256.6,307.2z M258.3,308.1l6.8-3.6c-0.6-1.2-1.7-1.9-3.1-1.9
		c-2.2,0-3.8,1.8-3.8,4.5C258.2,307.4,258.2,307.8,258.3,308.1z"/>
	<path fill="#FFFFFF" d="M270.1,312.7v-2h1.9v2H270.1z"/>
</g>
<g>
	<g>
		<path fill="#231F20" d="M235.7,439.3c-0.1,0-0.2-0.1-0.3-0.2c-0.1-0.2-0.1-0.4,0.1-0.5l4.5-3.2l-4.5-3.3c-0.2-0.1-0.2-0.4-0.1-0.5
			c0.1-0.2,0.4-0.2,0.5-0.1l4.5,3.2c0.2,0.2,0.3,0.4,0.3,0.7s-0.1,0.5-0.3,0.7l-4.5,3.2C235.9,439.3,235.8,439.3,235.7,439.3z"/>
	</g>
	<g>
		<path fill="#010101" d="M62.8,440h-3.3v-8.6h3.3c2.7,0,4.4,1.8,4.4,4.3C67.1,438.2,65.4,440,62.8,440z M62.8,432.2h-2.3v6.9h2.3
			c2,0,3.3-1.4,3.3-3.4C66.1,433.6,64.7,432.2,62.8,432.2z"/>
		<path fill="#010101" d="M69,440v-8.6h1v8.6H69z"/>
		<path fill="#010101" d="M75.3,440.1c-1.5,0-2.6-0.5-3.4-1.3l0.6-0.7c0.7,0.8,1.7,1.2,2.9,1.2c1.4,0,2.3-0.6,2.3-1.5
			c0-2.4-5.5-1-5.5-4.2c0-1.5,1.2-2.4,3.1-2.4c1.4,0,2.5,0.5,3.2,1.3l-0.6,0.7c-0.6-0.7-1.5-1.2-2.7-1.2c-1.3,0-2,0.6-2,1.4
			c0,2.3,5.5,0.8,5.5,4.2C78.7,439.2,77.5,440.1,75.3,440.1z"/>
		<path fill="#010101" d="M84,440.1c-2.6,0-4.1-2-4.1-4.5c0-2.5,1.5-4.5,4.1-4.5c1.4,0,2.4,0.6,3.2,1.6l-0.7,0.6
			c-0.6-0.9-1.4-1.4-2.5-1.4c-1.8,0-3.1,1.5-3.1,3.6c0,2.1,1.2,3.6,3.1,3.6c1.1,0,2-0.5,2.6-1.3l0.7,0.6
			C86.5,439.6,85.4,440.1,84,440.1z"/>
		<path fill="#010101" d="M92.3,440.1c-2.6,0-4.1-2-4.1-4.5c0-2.5,1.5-4.5,4.1-4.5s4.1,2,4.1,4.5C96.5,438.2,94.9,440.1,92.3,440.1z
			 M92.3,432c-1.9,0-3.1,1.6-3.1,3.6c0,2.1,1.2,3.6,3.1,3.6c2,0,3.2-1.6,3.2-3.6C95.5,433.6,94.3,432,92.3,432z"/>
		<path fill="#010101" d="M101.5,440h-1.1l-3.5-8.6H98l3,7.4h0l3-7.4h1L101.5,440z"/>
		<path fill="#010101" d="M106.4,440v-8.6h5.6v0.9h-4.7v2.9h4.1v0.9h-4.1v3.1h4.8v0.9H106.4z"/>
		<path fill="#010101" d="M120.2,440l-2.4-2.8h-2.5v2.8h-1v-8.6h3.7c1.8,0,3,1.2,3,2.9c0,1.4-0.8,2.4-2,2.8l2.5,3H120.2z
			 M117.8,432.2h-2.6v4.1h2.6c1.3,0,2.1-0.8,2.1-2.1C119.9,433,119.1,432.2,117.8,432.2z"/>
		<path fill="#010101" d="M135.5,440h-1.1l-2.4-5.9h0l-2.5,5.9h-1l-2.4-8.6h1l2.1,7.2h0l2.8-6.7h0.1l2.8,6.7h0l2.1-7.2h1L135.5,440z
			"/>
		<path fill="#010101" d="M145.7,440v-4h-5.3v4h-1v-8.6h1v3.8h5.3v-3.8h1v8.6H145.7z"/>
		<path fill="#010101" d="M155.5,440l-0.8-1.9h-4.8l-0.8,1.9H148l3.7-8.6h1.1l3.7,8.6H155.5z M150.3,437.2h4l-2-4.7h0L150.3,437.2z"
			/>
		<path fill="#010101" d="M158.8,440v-7.8h-3.2v-0.9h7.3v0.9h-3.2v7.8H158.8z"/>
		<path fill="#010101" d="M174.3,440v-4H169v4h-1v-8.6h1v3.8h5.3v-3.8h1v8.6H174.3z"/>
		<path fill="#010101" d="M184.1,440l-0.8-1.9h-4.8l-0.8,1.9h-1.1l3.7-8.6h1.1l3.7,8.6H184.1z M178.9,437.2h4l-2-4.7h0L178.9,437.2z
			"/>
		<path fill="#010101" d="M190.2,437.1h-2.7v2.8h-1v-8.6h3.7c1.8,0,3,1.2,3,2.9C193.2,435.9,192,437.1,190.2,437.1z M190.1,432.2
			h-2.6v4.1h2.6c1.3,0,2.1-0.8,2.1-2.1C192.2,433,191.3,432.2,190.1,432.2z"/>
		<path fill="#010101" d="M198.8,437.1h-2.7v2.8h-1v-8.6h3.7c1.8,0,3,1.2,3,2.9C201.8,435.9,200.6,437.1,198.8,437.1z M198.7,432.2
			h-2.6v4.1h2.6c1.3,0,2.1-0.8,2.1-2.1C200.8,433,200,432.2,198.7,432.2z"/>
		<path fill="#010101" d="M203.7,440v-8.6h5.6v0.9h-4.7v2.9h4.1v0.9h-4.1v3.1h4.8v0.9H203.7z"/>
		<path fill="#010101" d="M217.9,440l-5.4-7h0v7h-0.9v-8.6h0.9l5.4,7h0v-7h0.9v8.6H217.9z"/>
		<path fill="#010101" d="M224.3,440.1c-1.5,0-2.6-0.5-3.4-1.3l0.6-0.7c0.7,0.8,1.7,1.2,2.9,1.2c1.4,0,2.3-0.6,2.3-1.5
			c0-2.4-5.5-1-5.5-4.2c0-1.5,1.2-2.4,3.1-2.4c1.4,0,2.5,0.5,3.2,1.3l-0.6,0.7c-0.6-0.7-1.5-1.2-2.7-1.2c-1.3,0-2,0.6-2,1.4
			c0,2.3,5.5,0.8,5.5,4.2C227.6,439.2,226.4,440.1,224.3,440.1z"/>
	</g>
</g>
<g>
	<g>
		<path fill="#FFFFFF" d="M203.7,71.4c-0.5,0.1-1,0.3-1.4,0.4c-0.3,0.1-0.4,0.2-0.6,0.3c-0.2,0-0.1-0.4-0.4-0.3
			c-0.7,0.4-1.5,0.4-2.2,0.4c-2,0.2-4,0.6-6,0.2c-1.1-0.3-1.9-0.9-2.9-1.1c-0.8-0.3-1.4-0.8-2.1-1.2c-0.3-0.2-0.4-0.4-0.5-0.8
			c2.7-1.2,6.1-2.8,7.6-5.5c0.4-0.8,0.9-1.8,0.4-2.6c-0.7-1.4-2.4-0.5-3.4-0.4c-0.3,0-0.8,0.4-1.1,0.4c-0.4,0.2-0.9,0.2-1.2,0.4
			c-0.8,0.4-1.8,1-2.5,1.5c-1.6,1.5-3.1,2.8-3.6,5.1c-0.2-1.9-0.5-3.9-0.4-5.8c0.1-1.3,0.3-2.4,1.7-2.7c1.1-0.3,1.3-0.4,1.5,0.7
			c0,0.4,0.2,0.8,0.4,1.2c0.2,0.4,0.4,0.2,0.9,0.1c1.5-0.3,2.1-1.4,1.8-2.8c-0.2-1-1-2.7-2.1-2.8c-0.7-0.1-1.9-0.1-2.5,0.3
			c-1.4,0.4-3.3,1.3-3.9,2.5c-0.4,0.6-1.1,1.5-1,2.3c-0.2,0.9-0.1,1.8-0.1,2.6c0,1,0.3,1.9,0.4,3s0.2,2,0.3,3.1
			c0.1,0.7-0.9,0.9-1.5,1.2c-1,0.5-2.2,1.6-2.8,2.5c-0.5,0.8-0.8,1.7-0.3,2.5c1.3,1.2,3.1,1.2,4.6,0.3c1.1-0.7,1.9-1.8,2.4-3
			c0.2-0.4,0.2-1.1,0.4-1.4c0.2-0.2,0.6-0.4,0.8-0.5c2,3.7,6.9,4.1,10.7,3.8c2.4-0.3,4.7-0.9,7-1.8c0.7-0.3,1.2-0.5,1.8-1.1
			C203.9,72.1,204.9,71.3,203.7,71.4z M180.7,73c-0.1,0.4,0,0.8-0.1,1.1c-0.4,0.8-1.5,0.7-2.2,0.8c-1.4-0.6,2.4-2.7,2.5-2.5
			C180.9,72.6,180.7,72.9,180.7,73z M189.9,64.1c0.2-0.1,0.7-1,1-0.9s0.4,0.1,0.8,0.1c0.5-0.1,1.7-1.1,1.9-0.1
			c0.5,0.9-2.7,2.5-3.3,3.2c-0.2,0.2-0.2,0-0.3,0c-0.2,0.1-0.4,0.2-0.6,0.4c-0.4,0.4-1.7,1.1-2.4,1.1
			C186.8,65.8,188.7,65.1,189.9,64.1z M228.7,39.5c-1.4-0.7-3.3-0.3-4.7,0.3c-1.3,0.1-3,1.1-3.9,1.9c-0.4,0.5-0.8,1.1-1,1.8
			c-0.1,0.3-0.5,0.5-0.8,0.8c-0.4,0.4-0.4,1.5-0.1,2c0.4,0.7,1.2,1.5,2,1.6c1.2,0.2,1.2-0.5,0.9-1.6c-0.2-0.4,0-0.9-0.1-1.3
			c0-0.2-0.3-0.5-0.2-0.8c0.3-0.5,0.8-0.7,1.3-0.9c0.5,0,1.7-0.6,2.2-0.9c0.5-0.3,1.4-0.4,1.9-0.2c0.4,0.2,1.1,0.9,1.3,1.2
			c0.2,0.5-0.1,1.5-0.3,2.1c-0.4,1.8-1.8,3.7-2.8,5.2c-0.7,1.2-1.6,2.4-2.4,3.5c-1.2,1.7-2,3.6-2.7,5.6c-0.3,0.6-0.4,1.2-0.5,1.9
			c-0.2,0.5-0.4,1.1-0.4,1.6c-0.1,0.6,0.1,1.2-0.1,1.8c0,0.2-0.1,0.3-0.1,0.4c0,0.5,0.4,0.6,0.7,0.8c0.3-0.6,0.5-1.2,0.8-1.8
			c0.3-0.4,0.8-1.8,0.8-2.3c0.5-1.5,1.1-2.8,1.9-4.2c2.6-4.6,6.4-8.7,7.7-14C230.6,42.5,230.5,40.4,228.7,39.5z M141.3,52.8
			c-2.5-0.6-4.7,0.1-7.1,0.4c-2.6,0.3-5.2,0.9-7.8,1.5c0.4-1.1,0.7-2.4,1-3.6c0.1-0.5,0.1-1-0.1-1.5c-0.3-0.6,0.2-1.5,0-2.2
			c0-0.2,0.1-0.4,0.1-0.6c0.1-0.7-0.6-0.8-1.1-0.3c-0.5,0.7-1.2,1.1-1.5,2c-0.1,0.4-0.3,0.8-0.4,1.1c-0.1,0.3-0.4,0.4-0.6,0.6
			c-0.8,1.2-0.9,3.2-1.4,4.6c-0.4,0.4-0.4,1-0.8,1.4c-0.4,0.4-1,0.8-1.6,1c-1,0.5-0.6,1.6-0.6,2.5c0,0.9-0.1,1.7-0.2,2.5
			c-0.1,1.2-0.8,1.9-1.1,3.1c-0.2,0.6-0.7,1.3-1.1,1.8c-0.7,1-1.3,1.8-2.1,2.6c-1.1,1-2,2-3.3,2.7c-0.8,0.4-1.7,0.2-1.5-0.8
			c0.4-2.9,4-4.8,3.3-8.1c-0.2-0.6-0.4-1.1-1.1-1.2c-0.2-0.1-0.3-0.4-0.4-0.2c-0.1,0.1-0.3,0.4-0.4,0.3c-1.1-0.8-2.5-0.6-3.8-0.1
			c-2.8,1.3-6.2,3.2-8.2,5.6c-0.9,1.2-1.9,2.4-2,4c-0.2,1.8,1.1,3.3,3,3.3c1.9,0,4.4-0.9,6.1-1.9c0.2,0.9,0.5,1.8,1.4,2.3
			c1.2,0.7,2.5-0.2,3.7-0.7c2.6-1.3,4.3-3.6,6.4-5.5c-0.4,1.3-1.1,2.5-1.7,3.7c-0.4,0.8-0.1,1.3-0.1,2.1c0,0.4-0.4,1.4,0.3,1.5
			c1.5,0.2,2-1.8,2.5-2.8c0.2-0.4,0.9-1.5,0.9-1.9c0.3-0.5,0.6-1.3,0.7-1.8c0.4-1.6,1.1-3.1,1.8-4.6c0.5-1.1,1.3-2.2,1.8-3.3
			c0.3-0.6,0.4-1.3,0.5-2c0.2-0.6,0.5-1.1,0.7-1.7c0.2-0.4,0-0.7,0.4-0.9c0.4-0.1,0.7-0.3,1-0.4l1.8-0.4c1.3-0.4,2.6-0.9,3.9-1.4
			c0.9-0.3,1.8-0.4,2.6-0.6c0.8-0.2,1.8-0.2,2.5-0.4c0.3-0.1,0.5-0.4,0.8-0.4c0.5-0.1,1.1-0.1,1.6-0.2
			C140.9,53.9,141,53.7,141.3,52.8z M106.5,70.7c-0.5,1.6-3.1,1.8-4.5,1.8c-1.5,0-0.8-1.3-0.4-2.1c0.6-1.1,1.5-1.8,2.5-2.5
			c0.9-0.5,1.8-1.1,2.3-1.9c0.4-0.6,1.4-0.9,2-0.4C107.7,67.1,107.1,69,106.5,70.7z M116.4,76.7C116,76.6,116.8,76.7,116.4,76.7
			L116.4,76.7z M85.9,42.7c0.9-0.5,1.6,0.3,2.4,0.7c0.6,0.4,1.7,1.8,2.5,1.3c1.4-0.7-0.9-3.7-1.8-4c-0.4-0.1-0.4-0.4-0.8-0.5
			c-0.4-0.1-0.2,0-0.4-0.2c-0.9-0.7-3.2,0.8-3.8,1.4c-2.4,2-3.7,5.1-4.7,8c-1.1,3.3-2,6.7-3,10.1c-0.4,1.5-1,2.9-1.5,4.3
			c-0.4,1.1-0.5,2.3-0.9,3.4c-0.7,2.2-1.2,5.4-3.3,6.8c-0.8-1.1-1-2.3-1.2-3.6c-0.1-0.6-0.2-1.1,0-1.8c0-0.5-0.2-1-0.3-1.5
			c-0.1-0.8-0.1-1.7,0-2.5c0.2-1,0-1.8,0.1-2.8c0.4-3,0.7-6.1,1.4-9c0.2-0.9,0.4-1.7,0.6-2.5c0.2-0.8,1-3.3,0.2-3.9
			c-1.4-1.2-0.9,0.7-1.9,0.7c-1.5-0.1-1.8,1.8-2.1,3c-0.2,0.8-0.6,1.4-1,2.1c-0.4,0.6-0.8,1.5-1.3,2c-0.2,0.2-0.5,0.4-0.7,0.6
			c-0.3,0.5-0.4,1.1-0.6,1.8c-0.4,1.4-1.7,1.9-2.3,3.3c-0.4,1-0.8,1.9-1.3,2.9c-0.6,1-1.3,1.8-2,2.8c-1.2,1.8-2.4,3.8-4,5.4
			c0.6-3.8,1-7.5,1.9-11.2c0.9-3.2,0.8-6.3,1.8-9.5c0.4-0.9,0.4-1.6,0.6-2.3c0.4-1.1,0.7-2.1,0.9-3.3c0.2-0.9,0.2-1.9-0.5-2.5
			c-0.4-0.2-1-0.2-1.3,0.2c-0.4,0.4,0,1-0.7,0.7c-0.7-0.3-0.7,1.1-0.8,1.5c-0.3,0.9-0.7,1.7-1,2.6c-0.3,1-0.4,2-0.6,3
			c0.2,0.5-0.2,1.5-0.3,2c-0.1,1.1-0.4,1.9-0.7,2.9c-0.4,1.3-0.1,2.7-0.5,4c-0.3,1.1-0.4,2.1-0.5,3.3c-0.3,1.6-0.6,3.2-0.8,4.7
			c-0.2,1.3-0.4,2.5-0.7,3.9c-0.3,1.4-0.3,2.8-0.4,4.2c-0.2,1.1,0.4,2.8,1.8,2c0.9-0.5,1.8-1.6,2.3-2.5c1.1-1.8,2.5-3.4,3.7-5.3
			c0.9-1.3,1.7-2.7,2.4-4.1c0.4-0.7,0.7-1.3,1.1-2c0.4-0.6,1.1-1.4,1.1-2.1c0.3-0.6,0.6-1.1,1-1.7c0.4-0.6,1.3-1.5,1.4-2.2
			c0.6-0.9,1.1-1.8,1.8-2.7c-1.1,5-1.7,10.3-1.1,15.4c0.1,1.1,0.3,2.1,0.5,3.2c0.3,1,1,3.5,2.2,3.8c0.7,0.2,2.5,0.4,2.8-0.6
			c0.5-0.4,1.3-1.1,1.5-1.7c2.1-2.4,3.1-5.4,4-8.3c1.1-2.5,1.6-5.4,2.3-8.1c0.4-1,0.7-1.9,1-3c0.3-1.1,1-2.2,1.2-3.3
			c0.4-2,1.3-4,2.1-6C84.1,45.2,84.6,43.4,85.9,42.7z M95.9,72.1c-0.3-1.1-0.4-2.2-0.3-3.3c0.2-1.6,0.9-3.1,1.1-4.7
			C97,63,97.1,62,96.4,61c-0.5-0.7-1.6,0.4-1.9,0.8c-0.4-1-1.1,0.4-1.3,0.7c-0.7,0.9-1.1,2-1.8,3c-0.4,0.6-0.9,1.2-1.3,1.9
			c-0.4,0.5-1,0.7-0.7-0.1c1.6-3.8,3-7.6,4.3-11.4c0.9-2.8,1.9-5.6,3.3-8.3c0.7-1.5,1.5-3.1,1.8-4.7c0.2-0.8,0.4-1.9-0.4-2.5
			c-0.9-1-1.1,0.7-1.8,0.5c-0.5-0.1-1.2,0.6-1.3,1.1c0,0.6-0.5,1.1-0.7,1.7c-0.3,1.1-0.9,2.1-1.2,3.2c-0.4,0.8-0.6,1.8-0.9,2.5
			c-0.3,0.6-0.6,1.3-0.7,1.9c-0.3,1.1-0.4,2.5-0.8,3.6c-0.6,1.8-1.5,3.8-2,5.6c-0.4,1.7-1.3,3.3-1.9,5c-0.4,1.1-1.4,2.6-1.4,3.6
			c-0.2,0.2-0.3,0.5-0.3,0.8c0,0.4-0.4,0.7-0.5,1.1c-0.3,0.9-0.7,1.7-1,2.5c-0.4,1.1-1.4,3.7,0.6,3.3c1.8-0.4,2.5-2.5,3.8-3.8
			c1.3-1.5,2.8-2.9,4-4.5c-0.4,2.5-0.1,6.5,2.5,7.7c1,0.4,1.9,0.6,2.3-0.6c0.3-0.5,0.2-0.5-0.2-1.1C96.4,73.9,96.1,73,95.9,72.1z
			 M217.3,71.9c-0.7-0.4-0.8-0.2-1.4,0.3c-0.8,0.7-1.8,1.8-1.8,3c0.1,0.8,0.6,1.1,1.1,1.6c0.3,0.4,0.7,0.2,1,0.6
			c0.7-1.1,1.1-2.2,1.3-3.5C217.7,73.1,218.1,72.4,217.3,71.9z M170.6,74.2c-0.5-0.4-1.1-1-1.3-1.5c-0.1-0.4-0.4-0.9-0.4-1.3
			c-0.1-0.3-0.2-0.9-0.3-1.1c-0.1-0.8-0.1-2.2,0.3-2.9c0.2-0.5,1-0.9,1.4-1.4c2.2-2.6,4.3-5.3,6.1-8.3c1.7-2.8,3.1-5.8,4.7-8.6
			c0.8-1.2,1.5-2.5,2-4c0.4-1.1,1.1-2.5,1.1-3.7c0-3.3-4.1,0.6-4.9,1.4c-2.9,2.6-4.7,6.1-6.9,9.4c-1.2,1.8-2.3,3.7-3.4,5.5
			c-0.9,1.4-1.9,2.9-2.5,4.5c-0.5,1.5-0.5,3.7-1.6,4.9c-0.9,1-2.2,1.7-3.3,2.4c-1.7,1.1-3.3,2-5.2,2.8c-1.1,0.5-3.3,1.8-4.4,0.7
			c-0.4-0.4-0.3-0.8-0.4-1.2c0.1-0.4,0.5-0.4,0.9-0.6c2.3-1.1,4.4-3.6,5.7-5.7c0.8-1.2,1.7-3,1.2-4.5c-0.1-0.6-0.4-1.2-0.9-1.6
			c-2.1-1.3-5.2,1.1-6.6,2.7c-1.8,2-3,4.5-3.9,7c-0.1,0.4-0.4,1.8-0.6,1.8c-0.5,0.3-1.1,0.5-1.7,0.7c-0.8,0.3-1.6,0.4-2.4,0.4
			c-0.5,0-1.9-0.2-2.4,0.1c-0.5,0.4-0.1,0.7-1,1c-0.4,0.1-0.6,0.9-0.5,1.3c0,0.1,0.2,1.1,0.3,1.1c0.4,0,1.1,0,1.1,0.4
			c0.1-0.3,1.1-0.1,1.4-0.2s0.6,0,1-0.2s0.8-0.4,1.1-0.4c0.4,0.1,1.5-0.6,1.8-0.9c0.4-0.2,0.9-0.4,1.2-0.6c0.4,1.8,1.7,3.1,3.4,3.4
			c1.6,0.4,3.2-0.4,4.6-1.1c3.2-1.4,6.2-3.3,9-5.4c0.3,2.8,2.1,6.7,5.4,6.7c0.9,0,2.4-0.4,2.6-1.3C172.9,75.1,171.1,74.6,170.6,74.2
			z M169.6,62c0.4-0.8,1-1.7,1.1-2.5c0.2-0.5,0.5-1.1,0.9-1.6c0.8-1.3,1.5-2.8,2.3-4.1c0.9-1.4,1.8-2.9,2.7-4.3
			c0.8-1.1,1.7-2.2,2.7-3.3c0.4-0.4,0.8-0.7,1.1-1.1c0.5-0.5,0.5,0.6,0.4,0.8c-0.4,1.1-1.1,2-1.7,3c-0.4,0.8-1.1,1.3-1.4,2.1
			c-0.7,1.7-1.8,3.2-2.6,4.8c-0.8,1.5-1.9,2.7-2.6,4.3c-0.7,1.5-2.2,3-3.3,4.1C168.8,63.7,169.5,62.6,169.6,62z M152.1,67.8
			c0.4-0.4,0.5-1.1,0.7-1.7c0.4-1.2,1.1-2.4,2.1-3.3c0.4-0.4,1.1-1.2,1.7-1.2c0.8,0,0.4,1.1,0.2,1.5c-0.6,1.5-1.6,3.1-2.9,4l0.1-0.1
			c0,0.1-1.6,1.7-1.8,1.7c-0.2,0-0.4,0.2-0.5,0.3C151.8,68.7,151.7,68.2,152.1,67.8z"/>
	</g>
</g>
<path id="XMLID_57_" fill="#FFFFFF" d="M232.1,579.3h-6.2v12.3l3.1,0V588l0-0.8c0,0,4.5,0.2,5.7-1.4c0.9-1.1,1-2.8,0.6-4.1
	C234.9,580.1,233.7,579.3,232.1,579.3z M232.4,584.9c-0.7,0.9-2.4,0.9-3.4,0.8l0-5c0,0,2.8-0.4,3.5,0.9
	C233,582.3,233.1,584,232.4,584.9z M205.8,593.7c-1.1-0.4-2.7-1.7-3.7-2.8c-1.2-1.4-4.1-5.2-4.1-5.2c-1.5-1.9-3.5-5.1-5.4-6.7v12.7
	h1.7v-6.4c1.2,1.6,2.7,3.6,3.8,4.8c0.5,0.6,1.7,1.9,2.1,2.2c2.3,2.2,6.4,3.2,9.8,2v-0.1C208.8,594.4,207.3,594.3,205.8,593.7z
	 M195.1,580.1c1.2,1.4,4.1,5.2,4.1,5.2c1.5,1.9,3.5,5.1,5.4,6.7v-12.7h-1.7v6.4c-1.2-1.6-2.7-3.6-3.8-4.8c-0.5-0.6-1.7-1.9-2.1-2.2
	c-2.2-2.2-6.4-3.2-9.8-2v0.1c1.2-0.3,2.7-0.2,4.2,0.4C192.6,577.7,194.2,578.9,195.1,580.1z M214.8,580.7l0-1.4h-8.5v12.3h8.5l0-1.4
	c-1.6,0-3.7,0.3-5.3,0.1V586c1.4-0.1,3,0,4.3,0.1v-1.5c-1.3,0.2-2.9,0.2-4.3,0.1c0-0.3,0-4.1,0-4.1
	C211.2,580.4,213.2,580.7,214.8,580.7z M223.6,585.7c-1.4-1.2-3.2-1.6-4.4-2.5c-0.9-0.7-0.7-1.5-0.3-2c1-1.1,3.2-0.6,3.7-0.5
	c0.6,0.2,1,0.4,1.6,0.7v-1.5c-2.6-0.7-6.7-1.5-8.3,1.1c-0.6,1.1-0.7,3,1,4.1c1.7,1.4,4.6,2,4.9,3.1c0.2,0.6,0,1.2-0.5,1.6
	c-1.5,1.4-4,0.5-5.6-0.2l0,1.5c1.7,0.8,3.9,1,5.8,0.6c1.3-0.3,2.8-1.5,3-2.9C224.8,587.4,224.5,586.5,223.6,585.7z M247,591
	l-0.4-0.7c-0.8-1.5-1.5-2.8-2.2-4.5c0.1-0.1,0.1,0,0.3-0.1c1.1-0.5,1.9-1.5,1.9-3.2c-0.1-2.1-2-3.1-3.7-3.1h-6.3v12.3l3.2,0v-5.1
	h1.8c0.6,1,1.8,3.8,2,4.3l0.4,0.8h3.4L247,591C247,591.1,247,591,247,591z M243.1,584.4c-0.7,0.9-2.3,0.8-3.3,0.8v-4.5
	c0,0,2.7-0.4,3.4,0.9C243.6,582.3,243.6,583.7,243.1,584.4z M283.1,579.1c-0.8,0-6.1,0.1-6.1,6.3c0,6.2,5.2,6.4,6.1,6.4
	c0.9,0,6.2-0.2,6.1-6.4C289.3,579.2,284,579.1,283.1,579.1z M283.2,590.1L283.2,590.1c-0.4,0-2.9,0.1-2.9-4.9c0-4.7,2.5-4.5,2.9-4.5
	c0.4,0,2.9-0.1,2.9,4.5C286.1,590.3,283.5,590.1,283.2,590.1z M291.2,590.2L291.2,590.2c0,0,0.3-0.1,0.3-0.4c0-0.3-0.2-0.4-0.5-0.4
	h-0.8v1.5h0.3v-0.6h0.4c0.3,0,0.3,0.1,0.3,0.4c0,0.1,0,0.2,0,0.2h0.3c-0.1-0.1-0.1-0.2-0.1-0.4C291.4,590.3,291.3,590.3,291.2,590.2
	z M290.9,590.1h-0.4v-0.5h0.4c0.1,0,0.3,0,0.3,0.2C291.2,590.1,291.1,590.1,290.9,590.1z M290.7,588.7c-0.8,0-1.5,0.7-1.5,1.5
	c0,0.8,0.7,1.5,1.5,1.5c0.8,0,1.5-0.7,1.5-1.5C292.2,589.4,291.6,588.7,290.7,588.7z M290.7,591.5c-0.7,0-1.3-0.6-1.3-1.3
	c0-0.7,0.6-1.3,1.3-1.3c0.7,0,1.3,0.6,1.3,1.3C292.1,590.9,291.5,591.5,290.7,591.5z M265.6,585.7c-1.4-1.2-3.2-1.6-4.4-2.5
	c-0.9-0.7-0.7-1.5-0.3-2c1-1.1,3.2-0.6,3.7-0.5c0.6,0.2,1,0.4,1.6,0.7v-1.5c-2.6-0.7-6.7-1.5-8.3,1.1c-0.6,1.1-0.8,3,1,4.1
	c1.7,1.4,4.6,2,4.9,3.1c0.2,0.6,0,1.2-0.5,1.6c-1.5,1.4-4,0.5-5.6-0.2l0,1.5c1.7,0.8,3.9,1,5.8,0.6c1.3-0.3,2.8-1.5,3-2.9
	C266.9,587.4,266.6,586.5,265.6,585.7z M275.2,585.7c-1.4-1.2-3.2-1.6-4.4-2.5c-0.9-0.7-0.7-1.5-0.3-2c1-1.1,3.2-0.6,3.7-0.5
	c0.6,0.2,1,0.4,1.6,0.7v-1.5c-2.6-0.7-6.7-1.5-8.3,1.1c-0.6,1.1-0.8,3,1,4.1c1.7,1.4,4.6,2,4.9,3.1c0.2,0.6,0,1.2-0.5,1.6
	c-1.5,1.4-4,0.5-5.6-0.2l0,1.5c1.7,0.8,3.9,1,5.8,0.6c1.3-0.3,2.8-1.5,3.1-2.9C276.5,587.4,276.2,586.5,275.2,585.7z M248.4,591.7
	h8.5v-1.4c-1.6,0-3.7,0.3-5.3,0.1V586c1.4-0.1,3,0,4.3,0.1v-1.5c-1.3,0.2-2.9,0.2-4.3,0.1c0-0.3,0-4.1,0-4.1
	c1.7-0.2,3.7,0.1,5.3,0.1v-1.4h-8.5V591.7z"/>
<g id="XMLID_50_">
	<g id="XMLID_51_">
		<g id="XMLID_52_">
			<path id="XMLID_53_" fill="#FFFFFF" d="M7,593.5h15v-15H7V593.5z M19.7,590.1L19.7,590.1c-1.6,0.6-3.5,0.2-4.6-0.8
				c-0.2-0.1-0.8-0.8-1-1.1c-0.5-0.6-1.2-1.5-1.7-2.2v3h-0.8v-5.9c0.9,0.8,1.8,2.3,2.5,3.1c0,0,1.4,1.8,1.9,2.4
				c0.5,0.5,1.2,1.1,1.7,1.3C18.6,590.2,19.2,590.2,19.7,590.1z M9.3,581.9c1.6-0.5,3.5-0.1,4.6,0.9c0.2,0.2,0.8,0.8,1,1.1
				c0.5,0.6,1.2,1.5,1.7,2.3v-3h0.8v5.8c-0.9-0.8-1.8-2.2-2.5-3.1c0,0-1.4-1.8-1.9-2.4c-0.5-0.5-1.2-1.1-1.7-1.3
				C10.4,581.9,9.8,581.9,9.3,581.9L9.3,581.9z"/>
		</g>
	</g>
</g>
<g>
</g>
<g>
</g>
<g>
</g>
<g>
</g>
<g>
</g>
<g>
</g>
</svg>
